<?xml version="1.0" encoding="UTF-8" standalone="no"?><!DOCTYPE svg PUBLIC "-//W3C//DTD SVG 1.1//EN" "http://www.w3.org/Graphics/SVG/1.1/DTD/svg11.dtd"><svg width="100%" height="100%" viewBox="0 0 144 144" version="1.1" xmlns="http://www.w3.org/2000/svg" xmlns:xlink="http://www.w3.org/1999/xlink" xml:space="preserve" xmlns:serif="http://www.serif.com/" style="fill-rule:evenodd;clip-rule:evenodd;stroke-linejoin:round;stroke-miterlimit:2;"><path id="Globe-Earth" serif:id="Globe Earth" d="M7.971,67.52c0.898,-12.977 5.639,-25.165 13.774,-35.399c5.25,2.274 10.85,4.199 16.692,5.718c-2.687,9.348 -4.217,19.323 -4.556,29.681l-25.91,0Zm59.549,42.299l0,25.691c-7.366,-2.473 -14.219,-10.952 -19.125,-23.704c5.972,-1.106 12.391,-1.767 19.125,-1.987Zm-15.969,23.032c-9.095,-3.065 -17.392,-8.146 -24.325,-14.909c4.189,-1.659 8.745,-3.122 13.593,-4.352c2.891,7.717 6.549,14.265 10.732,19.261Zm-9.941,-56.371l25.91,-0l0,25.532c-7.406,0.237 -14.654,1.05 -21.591,2.416c-2.49,-8.648 -3.969,-18.25 -4.319,-27.948Zm25.91,-34.492l0,25.532l-25.91,0c0.35,-9.703 1.829,-19.3 4.319,-27.942c6.971,1.366 14.219,2.179 21.591,2.41Zm-40.294,-15.93c6.938,-6.763 15.236,-11.843 24.325,-14.903c-4.183,4.985 -7.835,11.538 -10.732,19.255c-4.843,-1.23 -9.404,-2.693 -13.593,-4.352Zm21.169,6.136c4.906,-12.764 11.765,-21.237 19.125,-23.693l0,25.686c-6.739,-0.226 -13.158,-0.892 -19.125,-1.993Zm-9.958,73.967c-5.831,1.525 -11.436,3.444 -16.692,5.718c-8.135,-10.222 -12.876,-22.416 -13.774,-35.399l25.91,-0c0.339,10.353 1.869,20.321 4.556,29.681Zm97.592,-29.71c-0.903,13.006 -5.639,25.206 -13.774,35.428c-5.261,-2.274 -10.866,-4.193 -16.692,-5.712c2.681,-9.348 4.211,-19.323 4.556,-29.716l25.91,0Zm-59.549,-42.264l-0,-25.686c7.366,2.456 14.219,10.935 19.125,23.693c-5.967,1.101 -12.386,1.767 -19.125,1.993Zm26.701,-3.777c-2.891,-7.717 -6.549,-14.27 -10.738,-19.255c9.089,3.06 17.393,8.14 24.325,14.903c-4.188,1.659 -8.744,3.122 -13.587,4.352Zm-0.796,37.11l-25.905,0l-0,-25.532c7.394,-0.237 14.643,-1.05 21.586,-2.41c2.49,8.631 3.974,18.233 4.319,27.942Zm7.728,0c-0.339,-10.353 -1.869,-20.321 -4.556,-29.676c5.837,-1.524 11.437,-3.443 16.698,-5.723c8.135,10.228 12.871,22.416 13.769,35.399l-25.911,0Zm-33.633,34.492l-0,-25.561l25.905,0c-0.345,9.732 -1.829,19.34 -4.319,27.971c-6.943,-1.366 -14.192,-2.179 -21.586,-2.41Zm40.294,15.93c-6.933,6.763 -15.236,11.844 -24.331,14.909c4.189,-4.996 7.847,-11.544 10.738,-19.261c4.854,1.236 9.41,2.693 13.593,4.352Zm-21.175,-6.136c-4.9,12.752 -11.753,21.226 -19.119,23.704l-0,-25.691c6.711,0.22 13.124,0.881 19.119,1.987Zm-23.602,-111.806c-39.696,0 -71.997,32.301 -71.997,72.003c0,39.696 32.301,71.997 71.997,71.997c39.702,-0 72.003,-32.301 72.003,-71.997c0,-39.702 -32.301,-72.003 -72.003,-72.003Z"/><rect x="40.5" y="54" width="63" height="36"/><g><path d="M51.127,78.577c0,-5.905 0.025,-9.536 0.076,-10.893l-0.038,0c-0.503,1.571 -1.998,5.202 -4.485,10.893l-3.921,0l-0.753,-13.154l3.09,-0c0.151,5.566 0.227,9.077 0.227,10.535l0.037,-0c0.214,-0.654 1.627,-4.165 4.241,-10.535l4.09,-0c-0,5.855 -0.019,9.366 -0.057,10.535l0.038,-0c0.377,-1.056 1.897,-4.567 4.561,-10.535l3.128,-0l-6.219,13.154l-4.015,0Z" style="fill:#fff;fill-rule:nonzero;"/><path d="M71.444,78.577c0,-5.905 0.025,-9.536 0.075,-10.893l-0.037,0c-0.503,1.571 -1.998,5.202 -4.486,10.893l-3.92,0l-0.754,-13.154l3.091,-0c0.151,5.566 0.226,9.077 0.226,10.535l0.038,-0c0.214,-0.654 1.627,-4.165 4.24,-10.535l4.09,-0c0,5.855 -0.019,9.366 -0.056,10.535l0.037,-0c0.377,-1.056 1.898,-4.567 4.561,-10.535l3.129,-0l-6.22,13.154l-4.014,0Z" style="fill:#fff;fill-rule:nonzero;"/><path d="M91.761,78.577c-0,-5.905 0.025,-9.536 0.075,-10.893l-0.038,0c-0.502,1.571 -1.997,5.202 -4.485,10.893l-3.92,0l-0.754,-13.154l3.091,-0c0.151,5.566 0.226,9.077 0.226,10.535l0.038,-0c0.213,-0.654 1.627,-4.165 4.24,-10.535l4.09,-0c-0,5.855 -0.019,9.366 -0.057,10.535l0.038,-0c0.377,-1.056 1.897,-4.567 4.561,-10.535l3.128,-0l-6.219,13.154l-4.014,0Z" style="fill:#fff;fill-rule:nonzero;"/></g></svg>